<svg xmlns="http://www.w3.org/2000/svg" x="0px" y="0px" width="50" height="50" viewBox="0,0,256,256">
<g transform="translate(12.8,12.8) scale(0.9,0.9)"><g fill="#000000" fill-rule="nonzero" stroke="none" stroke-width="1" stroke-linecap="butt" stroke-linejoin="miter" stroke-miterlimit="10" stroke-dasharray="" stroke-dashoffset="0" font-family="none" font-weight="none" font-size="none" text-anchor="none" style="mix-blend-mode: normal"><path d="M42.66667,270.22222c-31.41887,0 -56.88889,-25.47002 -56.88889,-56.88889v-170.66667c0,-31.41887 25.47002,-56.88889 56.88889,-56.88889h170.66667c31.41887,0 56.88889,25.47002 56.88889,56.88889v170.66667c0,31.41887 -25.47002,56.88889 -56.88889,56.88889z" id="shape"></path></g><g fill="#ffffff" fill-rule="nonzero" stroke="none" stroke-width="1" stroke-linecap="butt" stroke-linejoin="miter" stroke-miterlimit="10" stroke-dasharray="" stroke-dashoffset="0" font-family="none" font-weight="none" font-size="none" text-anchor="none" style="mix-blend-mode: normal"><g transform="translate(0.56656,-18.6611) scale(5.33333,5.33333)"><path d="M15.3125,5.69531c-0.14256,0.01806 -0.28417,0.05669 -0.41992,0.11719c-0.542,0.241 -0.89258,0.77905 -0.89258,1.37305v4.81445h-9.5c-0.829,0 -1.5,0.672 -1.5,1.5v20c0,0.828 0.671,1.5 1.5,1.5h9.5v4.81445c0,0.594 0.35058,1.13109 0.89258,1.37109c0.195,0.087 0.40047,0.12891 0.60547,0.12891c0.366,0 0.72877,-0.13367 1.00977,-0.38867l6.00195,-5.44141l-2.23242,-2.02344l-3.27734,2.9707v-2.93164c0,-0.828 -0.671,-1.5 -1.5,-1.5h-9.5v-17h9.5c0.829,0 1.5,-0.672 1.5,-1.5v-2.93164l3.27734,2.9707l2.23242,-2.02344l-6.00195,-5.44336c-0.32925,-0.2985 -0.76763,-0.43114 -1.19531,-0.37695zM32.6875,5.69727c-0.42783,-0.05405 -0.86606,0.07845 -1.19531,0.37695l-18,16.31445c-0.314,0.284 -0.49219,0.68733 -0.49219,1.11133c0,0.424 0.17819,0.82733 0.49219,1.11133l18,16.31445c0.281,0.255 0.64377,0.38867 1.00977,0.38867c0.205,0 0.41047,-0.04191 0.60547,-0.12891c0.542,-0.24 0.89258,-0.77709 0.89258,-1.37109v-4.81445h11.5c0.829,0 1.5,-0.672 1.5,-1.5v-20c0,-0.828 -0.671,-1.5 -1.5,-1.5h-11.5v-4.81445c0,-0.594 -0.35058,-1.13109 -0.89258,-1.37109c-0.136,-0.06025 -0.27731,-0.09917 -0.41992,-0.11719zM35,17c0.014,0 0.02411,0.00781 0.03711,0.00781c0.113,0.005 0.22599,0.0195 0.33398,0.0625l3.74219,1.49805c1.146,0.459 1.88672,1.55116 1.88672,2.78516v1.64648c0,0.332 -0.16545,0.64213 -0.43945,0.82813c-0.168,0.114 -0.36355,0.17188 -0.56055,0.17188c-0.125,0 -0.25009,-0.02327 -0.37109,-0.07227l-3.62891,-1.45117v4.52344c0,1.682 -1.757,3 -4,3c-2.243,0 -4,-1.318 -4,-3c0,-1.682 1.757,-3 4,-3c0.738,0 1.413,0.1533 2,0.4043v-3.4043v-3c0,-0.122 0.02836,-0.23766 0.06836,-0.34766c0.009,-0.023 0.01734,-0.04441 0.02734,-0.06641c0.047,-0.101 0.10755,-0.19439 0.18555,-0.27539c0.014,-0.015 0.02992,-0.02702 0.04492,-0.04102c0.037,-0.034 0.07128,-0.06966 0.11328,-0.09766c0.042,-0.029 0.08877,-0.04636 0.13477,-0.06836c0.02,-0.009 0.03664,-0.0213 0.05664,-0.0293c0.108,-0.043 0.22094,-0.06241 0.33594,-0.06641c0.012,-0.001 0.0212,-0.00781 0.0332,-0.00781z"></path></g></g><g fill="#ffffff" fill-rule="nonzero" stroke="none" stroke-width="1" stroke-linecap="butt" stroke-linejoin="miter" stroke-miterlimit="10" stroke-dasharray="" stroke-dashoffset="0" font-family="none" font-weight="none" font-size="none" text-anchor="none" style="mix-blend-mode: normal"><g><path d="M102.6,229.48333v11.64c-0.98667,0.97333 -2.42333,1.85333 -4.31,2.64c-1.88667,0.78 -4.27667,1.17 -7.17,1.17v0c-4.09333,0 -7.42667,-1.37 -10,-4.11c-2.56667,-2.74 -3.85,-6.30667 -3.85,-10.7v0v-1.04c0,-4.54 1.26667,-8.23333 3.8,-11.08c2.53333,-2.84667 5.84333,-4.27 9.93,-4.27v0c2.37333,0 4.54333,0.37667 6.51,1.13c1.96667,0.76 3.60333,1.78333 4.91,3.07v0v6.11h-4.5l-0.86,-4.06c-0.55333,-0.47333 -1.28667,-0.85333 -2.2,-1.14c-0.90667,-0.28667 -1.95,-0.43 -3.13,-0.43v0c-2.65333,0 -4.71667,0.98 -6.19,2.94c-1.47333,1.96 -2.21,4.52333 -2.21,7.69v0v1.08c0,3.08667 0.72333,5.55 2.17,7.39c1.44667,1.84 3.53,2.76 6.25,2.76v0c1.22,0 2.21,-0.10333 2.97,-0.31c0.75333,-0.21333 1.34667,-0.45667 1.78,-0.73v0v-5.15l-4.33,-0.33v-4.27zM115.77,214.16333h27.04v8.09h-4.67l-0.25,-3.4h-5.58v21.38l3.25,0.62v3.65h-12.58v-3.65l3.25,-0.62v-21.38h-5.57l-0.25,3.4h-4.64zM178.29,217.64333v6.21h-4.56l-0.79,-4.17c-0.53333,-0.33333 -1.30667,-0.62333 -2.32,-0.87c-1.01333,-0.25333 -2.09,-0.38 -3.23,-0.38v0c-1.66667,0 -2.95333,0.35333 -3.86,1.06c-0.91333,0.7 -1.37,1.60667 -1.37,2.72v0c0,1.02667 0.47667,1.87 1.43,2.53c0.95333,0.66 2.59667,1.35667 4.93,2.09v0c3.34667,0.93333 5.88333,2.16333 7.61,3.69c1.73333,1.52667 2.6,3.53333 2.6,6.02v0c0,2.59333 -1.03,4.64 -3.09,6.14c-2.05333,1.5 -4.76,2.25 -8.12,2.25v0c-2.40667,0 -4.57667,-0.38 -6.51,-1.14c-1.94,-0.76667 -3.55667,-1.82333 -4.85,-3.17v0v-6.33h4.71l0.65,4.31c0.61333,0.5 1.44333,0.91333 2.49,1.24c1.04667,0.32667 2.21667,0.49 3.51,0.49v0c1.66667,0 2.93333,-0.34 3.8,-1.02c0.86667,-0.68 1.3,-1.59 1.3,-2.73v0c0,-1.16667 -0.41333,-2.10333 -1.24,-2.81c-0.82667,-0.70667 -2.27333,-1.37333 -4.34,-2v0c-3.6,-1.04 -6.32333,-2.27667 -8.17,-3.71c-1.84667,-1.43333 -2.77,-3.39333 -2.77,-5.88v0c0,-2.45333 1.04333,-4.46333 3.13,-6.03c2.08,-1.56 4.69667,-2.36 7.85,-2.4v0c2.33333,0 4.46,0.35333 6.38,1.06c1.91333,0.70667 3.52333,1.65 4.83,2.83z"></path></g></g></g>
</svg>